<svg xmlns="http://www.w3.org/2000/svg" viewBox="0 0 565.8 457.68"><defs><style>.cls-1{fill:#2e2b2b;}.cls-2{fill:#da0e16;}.cls-3{fill:#616160;}.cls-4{fill:none;}.cls-5{fill:#fff;}</style></defs><title>Logos</title><g id="Camada_2" data-name="Camada 2"><g id="Layer_1" data-name="Layer 1"><polygon class="cls-1" points="471.82 445.67 478.14 445.67 501.31 385.6 494.99 385.6 471.82 445.67"/><rect class="cls-1" x="554.62" y="433.94" width="11.18" height="11.6"/><path class="cls-1" d="M478.26,397.5h-8.1a5,5,0,0,0-4.67,3.18l-10.36,26.25-9.8-26.17a5,5,0,0,0-4.7-3.26h-8.71l16.68,42.72a4,4,0,0,1-3.72,5.46h-5.6a3,3,0,0,0-3,3v9h10.93a10.79,10.79,0,0,0,10-6.82Z"/><path class="cls-2" d="M543.9,385.72h-8.66v13.9a27.74,27.74,0,0,0-11.16-1.92c-16.36.19-23.21,10.8-23.21,24.13S507.72,446,524.08,446c15.55,0,23.2-10.81,23.2-24.14V389.1A3.38,3.38,0,0,0,543.9,385.72ZM524.08,436c-8.58,0-11.16-6.35-11.16-14.18s2.45-14.18,11.16-14.18c9,0,11.16,6.35,11.16,14.18S531.85,436,524.08,436Z"/><polygon class="cls-1" points="471.82 317.62 478.14 317.62 501.31 257.55 494.99 257.55 471.82 317.62"/><rect class="cls-1" x="554.62" y="305.89" width="11.18" height="11.6"/><path class="cls-1" d="M478.26,269.45h-8.1a5,5,0,0,0-4.67,3.18l-10.36,26.25-9.8-26.17a5,5,0,0,0-4.7-3.26h-8.71l16.68,42.72a4,4,0,0,1-3.72,5.46h-5.6a3,3,0,0,0-3,3v9h10.93a10.79,10.79,0,0,0,10-6.83Z"/><path class="cls-1" d="M543.9,257.67h-8.66v13.9a27.74,27.74,0,0,0-11.16-1.92c-16.36.19-23.21,10.8-23.21,24.13s6.85,24.13,23.21,24.13c15.55,0,23.2-10.8,23.2-24.13V261.05A3.38,3.38,0,0,0,543.9,257.67ZM524.08,308c-8.58,0-11.16-6.35-11.16-14.18s2.45-14.18,11.16-14.18c9,0,11.16,6.35,11.16,14.18S531.85,308,524.08,308Z"/><polygon class="cls-3" points="471.82 189.84 478.14 189.84 501.31 129.77 494.99 129.77 471.82 189.84"/><rect class="cls-3" x="554.62" y="178.12" width="11.18" height="11.6"/><path class="cls-3" d="M478.26,141.68h-8.1a5,5,0,0,0-4.67,3.17l-10.36,26.26-9.8-26.17a5,5,0,0,0-4.7-3.26h-8.71L448.6,184.4a4,4,0,0,1-3.72,5.45h-5.6a3,3,0,0,0-3,3v9h10.93a10.78,10.78,0,0,0,10-6.82Z"/><path class="cls-3" d="M543.9,129.89h-8.66V143.8a27.73,27.73,0,0,0-11.16-1.93c-16.36.19-23.21,10.81-23.21,24.14s6.85,24.13,23.21,24.13c15.55,0,23.2-10.8,23.2-24.13V133.28A3.38,3.38,0,0,0,543.9,129.89Zm-19.82,50.3c-8.58,0-11.16-6.35-11.16-14.18s2.45-14.18,11.16-14.18c9,0,11.16,6.35,11.16,14.18S531.85,180.19,524.08,180.19Z"/><polygon class="cls-1" points="171.24 445.67 177.56 445.67 200.73 385.6 194.41 385.6 171.24 445.67"/><rect class="cls-1" x="349.39" y="433.94" width="11.18" height="11.6"/><path class="cls-1" d="M46.34,397.5h-8.1a5,5,0,0,0-4.68,3.18L23.21,426.93l-9.8-26.17a5,5,0,0,0-4.7-3.26H0l16.68,42.72A4,4,0,0,1,13,445.68H7.36a3,3,0,0,0-3,3v9H15.26a10.8,10.8,0,0,0,10-6.82Z"/><path class="cls-1" d="M68.35,397.36c-16.36.19-23.2,10.81-23.2,24.13s6.84,24.14,23.2,24.14c15.56,0,23.21-10.81,23.21-24.14S85.62,397.16,68.35,397.36Zm0,38.31c-8.58,0-11.16-6.34-11.16-14.18s2.45-14.17,11.16-14.17c9,0,11.16,6.34,11.16,14.17S76.13,435.67,68.35,435.67Z"/><path class="cls-1" d="M129,422.09c0,7.32-3.28,13.28-11,13.26-8.15,0-11-5.94-11-13.26V400.21h0a2.86,2.86,0,0,0-2.85-2.85H94.76v24.2c0,.11,0,.22,0,.33.17,13.21,7.47,23.88,23.26,23.88,15.33,0,23.09-10.67,23.26-23.88V397.36h-9.45a2.86,2.86,0,0,0-2.85,2.85h0Z"/><path class="cls-1" d="M168.93,397.09h-9a13.73,13.73,0,0,0-13.72,13.73v34.49H154a4.45,4.45,0,0,0,4.45-4.45V413a3.64,3.64,0,0,1,3.64-3.64h2.19a4.62,4.62,0,0,0,4.62-4.62Z"/><path class="cls-2" d="M243.32,385.72h-8.66v13.9a27.74,27.74,0,0,0-11.16-1.92c-16.36.19-23.21,10.8-23.21,24.13S207.14,446,223.5,446c15.55,0,23.2-10.81,23.2-24.14V389.1A3.38,3.38,0,0,0,243.32,385.72ZM223.5,436c-8.58,0-11.16-6.35-11.16-14.18s2.45-14.18,11.16-14.18c9,0,11.16,6.35,11.16,14.18S231.27,436,223.5,436Z"/><path class="cls-4" d="M275.94,407.48c-6.28,0-9.3,3.32-10.5,8.1h21.05C285.35,410.8,282.41,407.48,275.94,407.48Z"/><path class="cls-2" d="M296.53,426.32a2.55,2.55,0,0,0,2.54-2.4c.05-.74.08-1.5.08-2.26a38.82,38.82,0,0,0-.46-6.08c-1.69-10.43-8.19-18.22-22.75-18.05-16.35.19-23.2,10.8-23.2,24.13s6.85,24.13,23.2,24.13c10.65,0,17.59-5.06,20.91-12.54a1.08,1.08,0,0,0-1-1.52H284.4a9.84,9.84,0,0,1-8.46,4.11c-6.78,0-9.81-4-10.78-9.52Zm-20.59-18.84c6.47,0,9.41,3.32,10.55,8.1H265.44C266.64,410.8,269.66,407.48,275.94,407.48Z"/><path class="cls-2" d="M333.72,400.83,321.67,432.5l-11.75-31.65a5,5,0,0,0-4.66-3.24H297.8L315,444.06a2.58,2.58,0,0,0,2.41,1.68h8.44a2.59,2.59,0,0,0,2.41-1.67l17.46-46.49-7.38,0A5,5,0,0,0,333.72,400.83Z"/><polygon class="cls-1" points="171.24 317.62 177.56 317.62 200.73 257.55 194.41 257.55 171.24 317.62"/><rect class="cls-1" x="349.39" y="305.89" width="11.18" height="11.6"/><path class="cls-1" d="M46.34,269.45h-8.1a5,5,0,0,0-4.68,3.18L23.21,298.88l-9.8-26.17a5,5,0,0,0-4.7-3.26H0l16.68,42.72A4,4,0,0,1,13,317.63H7.36a3,3,0,0,0-3,3v9H15.26a10.8,10.8,0,0,0,10-6.83Z"/><path class="cls-1" d="M68.35,269.31c-16.36.19-23.2,10.8-23.2,24.13s6.84,24.14,23.2,24.14c15.56,0,23.21-10.81,23.21-24.14S85.62,269.11,68.35,269.31Zm0,38.31c-8.58,0-11.16-6.35-11.16-14.18s2.45-14.18,11.16-14.18c9,0,11.16,6.35,11.16,14.18S76.13,307.62,68.35,307.62Z"/><path class="cls-1" d="M129,294c0,7.33-3.28,13.29-11,13.27-8.15,0-11-5.94-11-13.27V272.16h0a2.86,2.86,0,0,0-2.85-2.85H94.76v24.2c0,.11,0,.22,0,.32.17,13.22,7.47,23.89,23.26,23.89,15.33,0,23.09-10.67,23.26-23.89V269.31h-9.45a2.86,2.86,0,0,0-2.85,2.85h0Z"/><path class="cls-1" d="M168.93,269h-9a13.73,13.73,0,0,0-13.72,13.73v34.49H154a4.45,4.45,0,0,0,4.45-4.45V284.94a3.64,3.64,0,0,1,3.64-3.63h2.19a4.62,4.62,0,0,0,4.62-4.62Z"/><path class="cls-1" d="M243.32,257.67h-8.66v13.9a27.74,27.74,0,0,0-11.16-1.92c-16.36.19-23.21,10.8-23.21,24.13s6.85,24.13,23.21,24.13c15.55,0,23.2-10.8,23.2-24.13V261.05A3.38,3.38,0,0,0,243.32,257.67ZM223.5,308c-8.58,0-11.16-6.35-11.16-14.18s2.45-14.18,11.16-14.18c9,0,11.16,6.35,11.16,14.18S231.27,308,223.5,308Z"/><path class="cls-1" d="M296.53,298.27a2.55,2.55,0,0,0,2.54-2.4c.05-.74.08-1.5.08-2.26a38.73,38.73,0,0,0-.46-6.08c-1.69-10.43-8.19-18.22-22.75-18.06-16.35.19-23.2,10.81-23.2,24.14s6.85,24.13,23.2,24.13c10.65,0,17.59-5.07,20.91-12.54a1.08,1.08,0,0,0-1-1.52H284.4a9.84,9.84,0,0,1-8.46,4.11c-6.78,0-9.81-4-10.78-9.52Zm-20.59-18.84c6.47,0,9.41,3.32,10.55,8.1H265.44C266.64,282.75,269.66,279.43,275.94,279.43Z"/><path class="cls-1" d="M333.72,272.78l-12.05,31.66L309.92,272.8a5,5,0,0,0-4.66-3.24H297.8L315,316a2.56,2.56,0,0,0,2.41,1.68h8.44a2.57,2.57,0,0,0,2.41-1.67l17.46-46.48-7.38,0A5,5,0,0,0,333.72,272.78Z"/><polygon class="cls-3" points="171.24 189.84 177.56 189.84 200.73 129.77 194.41 129.77 171.24 189.84"/><rect class="cls-3" x="349.39" y="178.12" width="11.18" height="11.6"/><path class="cls-3" d="M46.34,141.68h-8.1a5,5,0,0,0-4.68,3.17L23.21,171.11l-9.8-26.17a5,5,0,0,0-4.7-3.26H0L16.68,184.4A4,4,0,0,1,13,189.85H7.36a3,3,0,0,0-3,3v9H15.26a10.79,10.79,0,0,0,10-6.82Z"/><path class="cls-3" d="M68.35,141.54c-16.36.18-23.2,10.8-23.2,24.13S52,189.8,68.35,189.8c15.56,0,23.21-10.8,23.21-24.13S85.62,141.34,68.35,141.54Zm0,38.31c-8.58,0-11.16-6.35-11.16-14.18s2.45-14.18,11.16-14.18c9,0,11.16,6.35,11.16,14.18S76.13,179.85,68.35,179.85Z"/><path class="cls-3" d="M129,166.26c0,7.33-3.28,13.29-11,13.26-8.15,0-11-5.93-11-13.26V144.39h0a2.85,2.85,0,0,0-2.85-2.85H94.76v24.2c0,.11,0,.21,0,.32.17,13.22,7.47,23.88,23.26,23.88,15.33,0,23.09-10.66,23.26-23.88V141.54h-9.45a2.85,2.85,0,0,0-2.85,2.85h0Z"/><path class="cls-3" d="M168.93,141.27h-9A13.72,13.72,0,0,0,146.22,155v34.5H154a4.45,4.45,0,0,0,4.45-4.45V157.17a3.64,3.64,0,0,1,3.64-3.64h2.19a4.62,4.62,0,0,0,4.62-4.62Z"/><path class="cls-3" d="M243.32,129.89h-8.66V143.8a27.73,27.73,0,0,0-11.16-1.93c-16.36.19-23.21,10.81-23.21,24.14s6.85,24.13,23.21,24.13c15.55,0,23.2-10.8,23.2-24.13V133.28A3.38,3.38,0,0,0,243.32,129.89Zm-19.82,50.3c-8.58,0-11.16-6.35-11.16-14.18s2.45-14.18,11.16-14.18c9,0,11.16,6.35,11.16,14.18S231.27,180.19,223.5,180.19Z"/><path class="cls-3" d="M296.53,170.5a2.56,2.56,0,0,0,2.54-2.4c.05-.75.08-1.5.08-2.27a38.6,38.6,0,0,0-.46-6.07c-1.69-10.44-8.19-18.23-22.75-18.06-16.35.19-23.2,10.81-23.2,24.13S259.59,190,275.94,190c10.65,0,17.59-5.07,20.91-12.54a1.08,1.08,0,0,0-1-1.52H284.4a9.86,9.86,0,0,1-8.46,4.1c-6.78,0-9.81-4-10.78-9.51Zm-20.59-18.84c6.47,0,9.41,3.31,10.55,8.1H265.44C266.64,155,269.66,151.66,275.94,151.66Z"/><path class="cls-3" d="M333.72,145l-12.05,31.67L309.92,145a5,5,0,0,0-4.66-3.24H297.8L315,188.23a2.56,2.56,0,0,0,2.41,1.68h8.44a2.59,2.59,0,0,0,2.41-1.67l17.46-46.48-7.38,0A5,5,0,0,0,333.72,145Z"/><polygon class="cls-5" points="176.93 60.07 183.25 60.07 206.43 0 200.11 0 176.93 60.07"/><rect class="cls-5" x="355.09" y="48.34" width="11.18" height="11.6"/><path class="cls-5" d="M52,11.9H43.93a5,5,0,0,0-4.67,3.18L28.9,41.33,19.11,15.16A5,5,0,0,0,14.4,11.9H5.7L22.38,54.62a4,4,0,0,1-3.73,5.46H13.06a3,3,0,0,0-3,3v9H21a10.78,10.78,0,0,0,10-6.82Z"/><path class="cls-5" d="M74.05,11.76C57.69,12,50.85,22.57,50.85,35.9S57.69,60,74.05,60c15.55,0,23.2-10.81,23.2-24.13S91.32,11.56,74.05,11.76Zm0,38.31c-8.58,0-11.16-6.34-11.16-14.17s2.45-14.18,11.16-14.18c9,0,11.16,6.34,11.16,14.18S81.82,50.07,74.05,50.07Z"/><path class="cls-5" d="M134.68,36.49c0,7.32-3.27,13.28-11,13.26-8.14,0-11-5.94-11-13.26V14.61h0a2.85,2.85,0,0,0-2.85-2.85h-9.45V36c0,.1,0,.21,0,.32.16,13.22,7.46,23.88,23.25,23.88,15.33,0,23.1-10.66,23.26-23.88,0-.11,0-.22,0-.32V11.76h-9.45a2.86,2.86,0,0,0-2.86,2.85h0Z"/><path class="cls-5" d="M174.63,11.49h-9a13.73,13.73,0,0,0-13.73,13.73V59.71h7.82a4.45,4.45,0,0,0,4.45-4.45V27.4a3.64,3.64,0,0,1,3.63-3.64H170a4.62,4.62,0,0,0,4.62-4.62Z"/><path class="cls-5" d="M249,.12h-8.66V14a27.71,27.71,0,0,0-11.16-1.92c-16.36.19-23.2,10.8-23.2,24.13s6.84,24.14,23.2,24.14c15.56,0,23.21-10.81,23.21-24.14V3.5A3.39,3.39,0,0,0,249,.12ZM229.19,50.41c-8.58,0-11.16-6.35-11.16-14.18s2.45-14.18,11.16-14.18c9,0,11.16,6.35,11.16,14.18S237,50.41,229.19,50.41Z"/><path class="cls-5" d="M302.23,40.73a2.56,2.56,0,0,0,2.54-2.4c.05-.75.07-1.5.07-2.27a37.44,37.44,0,0,0-.46-6.07c-1.68-10.44-8.19-18.23-22.74-18.06-16.36.19-23.2,10.8-23.2,24.13s6.84,24.14,23.2,24.14c10.65,0,17.59-5.07,20.91-12.55a1.08,1.08,0,0,0-1-1.52H290.1a9.85,9.85,0,0,1-8.46,4.11c-6.78,0-9.81-4-10.78-9.51ZM281.64,21.88c6.47,0,9.4,3.32,10.54,8.11h-21C272.34,25.2,275.35,21.88,281.64,21.88Z"/><path class="cls-5" d="M339.41,15.23l-12,31.67L315.62,15.25A5,5,0,0,0,311,12H303.5l17.19,46.45a2.58,2.58,0,0,0,2.42,1.68h8.44A2.59,2.59,0,0,0,334,58.47L351.42,12,344,12A5,5,0,0,0,339.41,15.23Z"/><polygon class="cls-5" points="470.96 60.07 477.28 60.07 500.45 0 494.13 0 470.96 60.07"/><rect class="cls-5" x="553.76" y="48.34" width="11.18" height="11.6"/><path class="cls-5" d="M477.41,11.9H469.3a5,5,0,0,0-4.67,3.18L454.27,41.33l-9.8-26.17a5,5,0,0,0-4.7-3.26h-8.71l16.69,42.72A4,4,0,0,1,444,60.08h-5.59a3,3,0,0,0-3,3v9h10.93a10.78,10.78,0,0,0,10-6.82Z"/><path class="cls-5" d="M543,.12h-8.66V14a27.71,27.71,0,0,0-11.16-1.92c-16.36.19-23.2,10.8-23.2,24.13s6.84,24.14,23.2,24.14c15.55,0,23.2-10.81,23.2-24.14V3.5A3.38,3.38,0,0,0,543,.12ZM523.22,50.41c-8.58,0-11.16-6.35-11.16-14.18s2.45-14.18,11.16-14.18c9,0,11.16,6.35,11.16,14.18S531,50.41,523.22,50.41Z"/></g></g></svg>