<svg width="171" height="111" xmlns="http://www.w3.org/2000/svg" xmlns:xlink="http://www.w3.org/1999/xlink" overflow="hidden"><defs><clipPath id="clip0"><path d="M261 105 432 105 432 216 261 216Z" fill-rule="evenodd" clip-rule="evenodd"/></clipPath><clipPath id="clip1"><path d="M261 106 431 106 431 215 261 215Z" fill-rule="evenodd" clip-rule="evenodd"/></clipPath><clipPath id="clip2"><path d="M261 121 414 121 414 215 261 215Z" fill-rule="evenodd" clip-rule="evenodd"/></clipPath><clipPath id="clip3"><path d="M-152 121 414 121 414 577-152 577Z" fill-rule="evenodd" clip-rule="evenodd"/></clipPath></defs><g clip-path="url(#clip0)" transform="translate(-261 -105)"><g clip-path="url(#clip1)"><g clip-path="url(#clip2)"><g clip-path="url(#clip3)"><path d="M469.405 443.389 475.693 443.389 498.745 383.627 492.457 383.627 469.405 443.389Z" fill="#2E2B2B" transform="matrix(1.00508 0 -0 1 -151.859 121.493)"/><path d="M551.782 431.719 562.905 431.719 562.905 443.26 551.782 443.26Z" fill="#2E2B2B" transform="matrix(1.00508 0 -0 1 -151.859 121.493)"/><path d="M475.813 395.466 467.754 395.466C465.701 395.46 463.855 396.717 463.108 398.63L452.801 424.745 443.051 398.709C442.326 396.755 440.459 395.461 438.375 395.466L429.71 395.466 446.304 437.967C447.107 440.013 446.098 442.322 444.052 443.125 443.59 443.306 443.099 443.399 442.603 443.399L437.032 443.399C435.384 443.399 434.047 444.736 434.047 446.384L434.047 455.338 444.921 455.338C449.313 455.324 453.254 452.637 454.87 448.553Z" fill="#2E2B2B" transform="matrix(1.00508 0 -0 1 -151.859 121.493)"/><path d="M541.117 383.746 532.501 383.746 532.501 397.575C528.971 396.182 525.191 395.531 521.398 395.665 505.122 395.854 498.307 406.41 498.307 419.671 498.307 432.933 505.122 443.718 521.398 443.718 536.868 443.718 544.479 432.963 544.479 419.701L544.479 387.109C544.479 385.252 542.974 383.746 541.117 383.746ZM521.398 433.769C512.862 433.769 510.295 427.451 510.295 419.661 510.295 411.871 512.733 405.554 521.398 405.554 530.352 405.554 532.501 411.871 532.501 419.661 532.501 427.451 529.128 433.769 521.398 433.769Z" fill="#DA0E16" transform="matrix(1.00508 0 -0 1 -151.859 121.493)"/><path d="M469.405 315.995 475.693 315.995 498.745 256.232 492.457 256.232 469.405 315.995Z" fill="#2E2B2B" transform="matrix(1.00508 0 -0 1 -151.859 121.493)"/><path d="M551.782 304.325 562.905 304.325 562.905 315.865 551.782 315.865Z" fill="#2E2B2B" transform="matrix(1.00508 0 -0 1 -151.859 121.493)"/><path d="M475.813 268.071 467.754 268.071C465.701 268.066 463.855 269.322 463.108 271.235L452.801 297.35 443.051 271.314C442.326 269.361 440.459 268.066 438.375 268.071L429.71 268.071 446.304 310.572C447.107 312.619 446.098 314.928 444.052 315.73 443.59 315.911 443.099 316.004 442.603 316.005L437.032 316.005C435.384 316.005 434.047 317.341 434.047 318.989L434.047 327.943 444.921 327.943C449.316 327.928 453.257 325.236 454.87 321.148Z" fill="#2E2B2B" transform="matrix(1.00508 0 -0 1 -151.859 121.493)"/><path d="M541.117 256.351 532.501 256.351 532.501 270.18C528.971 268.787 525.191 268.137 521.398 268.27 505.122 268.459 498.307 279.015 498.307 292.277 498.307 305.538 505.122 316.283 521.398 316.283 536.868 316.283 544.479 305.538 544.479 292.277L544.479 259.714C544.479 257.857 542.974 256.351 541.117 256.351ZM521.398 306.424C512.862 306.424 510.295 300.106 510.295 292.316 510.295 284.526 512.733 278.209 521.398 278.209 530.352 278.209 532.501 284.526 532.501 292.316 532.501 300.106 529.128 306.424 521.398 306.424Z" fill="#2E2B2B" transform="matrix(1.00508 0 -0 1 -151.859 121.493)"/><path d="M469.405 188.868 475.693 188.868 498.745 129.106 492.457 129.106 469.405 188.868Z" fill="#616160" transform="matrix(1.00508 0 -0 1 -151.859 121.493)"/><path d="M551.782 177.208 562.905 177.208 562.905 188.749 551.782 188.749Z" fill="#616160" transform="matrix(1.00508 0 -0 1 -151.859 121.493)"/><path d="M475.813 140.955 467.754 140.955C465.703 140.948 463.858 142.2 463.108 144.109L452.801 170.234 443.051 144.198C442.326 142.244 440.459 140.95 438.375 140.955L429.71 140.955 446.304 183.456C447.101 185.505 446.086 187.811 444.038 188.608 443.581 188.786 443.094 188.877 442.603 188.878L437.032 188.878C435.384 188.878 434.047 190.215 434.047 191.863L434.047 200.817 444.921 200.817C449.314 200.806 453.257 198.118 454.87 194.032Z" fill="#616160" transform="matrix(1.00508 0 -0 1 -151.859 121.493)"/><path d="M541.117 129.225 532.501 129.225 532.501 143.064C528.971 141.667 525.192 141.013 521.398 141.144 505.122 141.333 498.307 151.899 498.307 165.16 498.307 178.422 505.122 189.167 521.398 189.167 536.868 189.167 544.479 178.422 544.479 165.16L544.479 132.598C544.485 130.741 542.984 129.231 541.127 129.225 541.123 129.225 541.12 129.225 541.117 129.225ZM521.398 179.268C512.862 179.268 510.295 172.95 510.295 165.16 510.295 157.371 512.733 151.053 521.398 151.053 530.352 151.053 532.501 157.371 532.501 165.16 532.501 172.95 529.128 179.268 521.398 179.268Z" fill="#616160" transform="matrix(1.00508 0 -0 1 -151.859 121.493)"/><path d="M170.364 443.389 176.651 443.389 199.703 383.627 193.415 383.627 170.364 443.389Z" fill="#2E2B2B" transform="matrix(1.00508 0 -0 1 -151.859 121.493)"/><path d="M347.602 431.719 358.725 431.719 358.725 443.26 347.602 443.26Z" fill="#2E2B2B" transform="matrix(1.00508 0 -0 1 -151.859 121.493)"/><path d="M46.1029 395.466 38.0443 395.466C35.9875 395.456 34.1369 396.714 33.3883 398.63L23.0912 424.745 13.3414 398.709C12.6161 396.755 10.7496 395.461 8.66543 395.466L0 395.466 16.5946 437.967C17.397 440.013 16.3887 442.323 14.3425 443.125 13.8934 443.301 13.4159 443.394 12.9335 443.399L7.32234 443.399C5.67396 443.399 4.33769 444.736 4.33769 446.384L4.33769 455.338 15.1819 455.338C19.5731 455.322 23.5125 452.635 25.1307 448.553Z" fill="#2E2B2B" transform="matrix(1.00508 0 -0 1 -151.859 121.493)"/><path d="M68.0002 395.327C51.7239 395.516 44.9189 406.081 44.9189 419.333 44.9189 432.585 51.7239 443.35 68.0002 443.35 83.4806 443.35 91.0914 432.595 91.0914 419.333 91.0914 406.071 85.1818 395.128 68.0002 395.327ZM68.0002 433.44C59.4641 433.44 56.8973 427.133 56.8973 419.333 56.8973 411.533 59.3348 405.236 68.0002 405.236 76.9542 405.236 79.1031 411.543 79.1031 419.333 79.1031 427.123 75.7404 433.44 68.0002 433.44Z" fill="#2E2B2B" transform="matrix(1.00508 0 -0 1 -151.859 121.493)"/><path d="M128.34 419.93C128.34 427.212 125.077 433.142 117.396 433.122 109.288 433.122 106.452 427.212 106.452 419.93L106.452 398.162 106.452 398.162C106.447 396.598 105.181 395.332 103.617 395.327L94.2751 395.327 94.2751 419.403C94.2751 419.512 94.2751 419.622 94.2751 419.731 94.4442 432.873 101.707 443.489 117.416 443.489 132.668 443.489 140.388 432.873 140.557 419.731L140.557 395.327 131.155 395.327C129.592 395.332 128.325 396.598 128.32 398.162L128.32 398.162Z" fill="#2E2B2B" transform="matrix(1.00508 0 -0 1 -151.859 121.493)"/><path d="M168.065 395.058 159.112 395.058C151.571 395.063 145.462 401.177 145.462 408.718L145.462 443.031 153.212 443.031C155.657 443.031 157.639 441.049 157.639 438.604L157.639 410.886C157.639 408.886 159.26 407.265 161.26 407.265L163.439 407.265C165.978 407.265 168.036 405.207 168.036 402.669Z" fill="#2E2B2B" transform="matrix(1.00508 0 -0 1 -151.859 121.493)"/><path d="M242.075 383.746 233.459 383.746 233.459 397.575C229.929 396.182 226.149 395.531 222.356 395.665 206.08 395.854 199.265 406.41 199.265 419.671 199.265 432.933 206.08 443.718 222.356 443.718 237.827 443.718 245.438 432.963 245.438 419.701L245.438 387.109C245.438 385.252 243.932 383.746 242.075 383.746ZM222.356 433.769C213.82 433.769 211.253 427.451 211.253 419.661 211.253 411.871 213.691 405.554 222.356 405.554 231.31 405.554 233.459 411.871 233.459 419.661 233.459 427.451 230.086 433.769 222.356 433.769Z" fill="#DA0E16" transform="matrix(1.00508 0 -0 1 -151.859 121.493)"/><path d="M295.013 424.138C296.354 424.135 297.461 423.089 297.54 421.751 297.589 421.014 297.619 420.258 297.619 419.502 297.625 417.477 297.472 415.454 297.161 413.453 295.48 403.077 289.013 395.327 274.528 395.496 258.262 395.685 251.447 406.24 251.447 419.502 251.447 432.764 258.262 443.509 274.528 443.509 285.123 443.509 292.028 438.475 295.331 431.033 295.573 430.491 295.329 429.856 294.788 429.614 294.646 429.55 294.491 429.519 294.336 429.521L282.945 429.521C281.014 432.223 277.845 433.762 274.528 433.61 267.783 433.61 264.768 429.63 263.803 424.138ZM274.528 405.395C280.965 405.395 283.89 408.698 285.024 413.453L264.082 413.453C265.275 408.698 268.28 405.395 274.528 405.395Z" fill="#DA0E16" transform="matrix(1.00508 0 -0 1 -151.859 121.493)"/><path d="M332.012 398.779 320.024 430.287 308.334 398.799C307.607 396.866 305.762 395.584 303.698 395.575L296.276 395.575 313.388 441.788C313.761 442.79 314.716 443.456 315.786 443.459L324.182 443.459C325.248 443.454 326.202 442.794 326.58 441.797L343.951 395.545 336.609 395.545C334.556 395.572 332.73 396.856 332.012 398.779Z" fill="#DA0E16" transform="matrix(1.00508 0 -0 1 -151.859 121.493)"/><path d="M170.364 315.995 176.651 315.995 199.703 256.232 193.415 256.232 170.364 315.995Z" fill="#2E2B2B" transform="matrix(1.00508 0 -0 1 -151.859 121.493)"/><path d="M347.602 304.325 358.725 304.325 358.725 315.865 347.602 315.865Z" fill="#2E2B2B" transform="matrix(1.00508 0 -0 1 -151.859 121.493)"/><path d="M46.1029 268.071 38.0443 268.071C35.9875 268.062 34.1369 269.319 33.3883 271.235L23.0912 297.35 13.3414 271.314C12.6161 269.361 10.7496 268.066 8.66543 268.071L0 268.071 16.5946 310.572C17.397 312.619 16.3887 314.928 14.3425 315.73 13.8934 315.906 13.4159 315.999 12.9335 316.005L7.32234 316.005C5.67396 316.005 4.33769 317.341 4.33769 318.989L4.33769 327.943 15.1819 327.943C19.5756 327.925 23.5157 325.234 25.1307 321.148Z" fill="#2E2B2B" transform="matrix(1.00508 0 -0 1 -151.859 121.493)"/><path d="M68.0002 267.932C51.7239 268.121 44.9189 278.677 44.9189 291.938 44.9189 305.2 51.7239 315.955 68.0002 315.955 83.4806 315.955 91.0914 305.2 91.0914 291.938 91.0914 278.677 85.1818 267.733 68.0002 267.932ZM68.0002 306.046C59.4641 306.046 56.8973 299.728 56.8973 291.938 56.8973 284.148 59.3348 277.831 68.0002 277.831 76.9542 277.831 79.1031 284.148 79.1031 291.938 79.1031 299.728 75.7404 306.046 68.0002 306.046Z" fill="#2E2B2B" transform="matrix(1.00508 0 -0 1 -151.859 121.493)"/><path d="M128.34 292.495C128.34 299.788 125.077 305.717 117.396 305.698 109.288 305.698 106.452 299.788 106.452 292.495L106.452 270.767 106.452 270.767C106.447 269.204 105.181 267.937 103.617 267.932L94.2751 267.932 94.2751 292.008C94.2751 292.117 94.2751 292.227 94.2751 292.326 94.4442 305.479 101.707 316.094 117.416 316.094 132.668 316.094 140.388 305.479 140.557 292.326L140.557 267.932 131.155 267.932C129.592 267.937 128.325 269.204 128.32 270.767L128.32 270.767Z" fill="#2E2B2B" transform="matrix(1.00508 0 -0 1 -151.859 121.493)"/><path d="M168.065 267.623 159.112 267.623C151.571 267.629 145.462 273.743 145.462 281.283L145.462 315.597 153.212 315.597C155.657 315.597 157.639 313.615 157.639 311.169L157.639 283.482C157.645 281.486 159.264 279.87 161.26 279.87L163.439 279.87C165.978 279.87 168.036 277.813 168.036 275.274Z" fill="#2E2B2B" transform="matrix(1.00508 0 -0 1 -151.859 121.493)"/><path d="M242.075 256.351 233.459 256.351 233.459 270.18C229.929 268.787 226.149 268.137 222.356 268.27 206.08 268.459 199.265 279.015 199.265 292.277 199.265 305.538 206.08 316.283 222.356 316.283 237.827 316.283 245.438 305.538 245.438 292.277L245.438 259.714C245.438 257.857 243.932 256.351 242.075 256.351ZM222.356 306.424C213.82 306.424 211.253 300.106 211.253 292.316 211.253 284.526 213.691 278.209 222.356 278.209 231.31 278.209 233.459 284.526 233.459 292.316 233.459 300.106 230.086 306.424 222.356 306.424Z" fill="#2E2B2B" transform="matrix(1.00508 0 -0 1 -151.859 121.493)"/><path d="M295.013 296.744C296.354 296.741 297.461 295.695 297.54 294.356 297.589 293.62 297.619 292.864 297.619 292.107 297.626 290.082 297.473 288.06 297.161 286.059 295.48 275.682 289.013 267.932 274.528 268.091 258.262 268.28 251.447 278.846 251.447 292.107 251.447 305.369 258.262 316.114 274.528 316.114 285.123 316.114 292.028 311.07 295.331 303.638 295.573 303.096 295.329 302.461 294.788 302.219 294.646 302.156 294.491 302.124 294.336 302.126L282.945 302.126C281.014 304.828 277.845 306.368 274.528 306.215 267.783 306.215 264.768 302.235 263.803 296.744ZM274.528 278C280.965 278 283.89 281.303 285.024 286.059L264.082 286.059C265.275 281.303 268.28 278 274.528 278Z" fill="#2E2B2B" transform="matrix(1.00508 0 -0 1 -151.859 121.493)"/><path d="M332.012 271.384 320.024 302.882 308.334 271.404C307.607 269.471 305.762 268.189 303.698 268.181L296.276 268.181 313.388 314.383C313.756 315.389 314.714 316.057 315.786 316.054L324.182 316.054C325.25 316.055 326.206 315.393 326.58 314.393L343.951 268.151 336.609 268.151C334.556 268.177 332.73 269.461 332.012 271.384Z" fill="#2E2B2B" transform="matrix(1.00508 0 -0 1 -151.859 121.493)"/><path d="M170.364 188.868 176.651 188.868 199.703 129.106 193.415 129.106 170.364 188.868Z" fill="#616160" transform="matrix(1.00508 0 -0 1 -151.859 121.493)"/><path d="M347.602 177.208 358.725 177.208 358.725 188.749 347.602 188.749Z" fill="#616160" transform="matrix(1.00508 0 -0 1 -151.859 121.493)"/><path d="M46.1029 140.955 38.0443 140.955C35.99 140.944 34.1401 142.197 33.3883 144.109L23.0912 170.234 13.3414 144.198C12.6161 142.244 10.7496 140.95 8.66543 140.955L0 140.955 16.5946 183.456C17.3915 185.505 16.377 187.811 14.3288 188.608 13.8837 188.781 13.411 188.873 12.9335 188.878L7.32234 188.878C5.67396 188.878 4.33769 190.215 4.33769 191.863L4.33769 200.817 15.1819 200.817C19.574 200.804 23.5148 198.116 25.1307 194.032Z" fill="#616160" transform="matrix(1.00508 0 -0 1 -151.859 121.493)"/><path d="M68.0002 140.816C51.7239 140.995 44.9189 151.56 44.9189 164.822 44.9189 178.084 51.7339 188.829 68.0002 188.829 83.4806 188.829 91.0914 178.084 91.0914 164.822 91.0914 151.56 85.1818 140.617 68.0002 140.816ZM68.0002 178.93C59.4641 178.93 56.8973 172.612 56.8973 164.822 56.8973 157.032 59.3348 150.715 68.0002 150.715 76.9542 150.715 79.1031 157.032 79.1031 164.822 79.1031 172.612 75.7404 178.93 68.0002 178.93Z" fill="#616160" transform="matrix(1.00508 0 -0 1 -151.859 121.493)"/><path d="M128.34 165.409C128.34 172.702 125.077 178.631 117.396 178.601 109.288 178.601 106.452 172.702 106.452 165.409L106.452 143.651 106.452 143.651C106.452 142.085 105.183 140.816 103.617 140.816L94.2751 140.816 94.2751 164.892C94.2751 165.001 94.2751 165.101 94.2751 165.21 94.4442 178.363 101.707 188.968 117.416 188.968 132.668 188.968 140.388 178.363 140.557 165.21L140.557 140.816 131.155 140.816C129.589 140.816 128.32 142.085 128.32 143.651L128.32 143.651Z" fill="#616160" transform="matrix(1.00508 0 -0 1 -151.859 121.493)"/><path d="M168.065 140.547 159.112 140.547C151.573 140.553 145.466 146.668 145.472 154.207L145.472 188.53 153.212 188.53C155.657 188.53 157.639 186.548 157.639 184.103L157.639 156.366C157.639 154.366 159.26 152.744 161.26 152.744L163.439 152.744C165.978 152.744 168.036 150.686 168.036 148.148Z" fill="#616160" transform="matrix(1.00508 0 -0 1 -151.859 121.493)"/><path d="M242.075 129.225 233.459 129.225 233.459 143.064C229.93 141.667 226.15 141.013 222.356 141.144 206.08 141.333 199.265 151.899 199.265 165.16 199.265 178.422 206.08 189.167 222.356 189.167 237.827 189.167 245.438 178.422 245.438 165.16L245.438 132.598C245.443 130.741 243.942 129.231 242.085 129.225 242.081 129.225 242.078 129.225 242.075 129.225ZM222.356 179.268C213.82 179.268 211.253 172.95 211.253 165.16 211.253 157.371 213.691 151.053 222.356 151.053 231.31 151.053 233.459 157.371 233.459 165.16 233.459 172.95 230.086 179.268 222.356 179.268Z" fill="#616160" transform="matrix(1.00508 0 -0 1 -151.859 121.493)"/><path d="M295.013 169.627C296.352 169.62 297.456 168.576 297.54 167.24 297.589 166.494 297.619 165.747 297.619 164.981 297.626 162.959 297.473 160.94 297.161 158.942 295.48 148.556 289.013 140.806 274.528 140.975 258.262 141.164 251.447 151.73 251.447 164.981 251.447 178.233 258.262 189.028 274.528 189.028 285.123 189.028 292.028 183.984 295.331 176.552 295.573 176.01 295.329 175.375 294.788 175.133 294.646 175.069 294.491 175.038 294.336 175.04L282.945 175.04C281.01 177.735 277.843 179.27 274.528 179.119 267.783 179.119 264.768 175.139 263.803 169.657ZM274.528 150.884C280.965 150.884 283.89 154.177 285.024 158.942L264.082 158.942C265.275 154.207 268.28 150.884 274.528 150.884Z" fill="#616160" transform="matrix(1.00508 0 -0 1 -151.859 121.493)"/><path d="M332.012 144.258 320.024 175.766 308.334 144.258C307.607 142.326 305.762 141.043 303.698 141.035L296.276 141.035 313.388 187.267C313.756 188.273 314.714 188.941 315.786 188.938L324.182 188.938C325.248 188.934 326.202 188.273 326.58 187.277L343.951 141.035 336.609 141.035C334.559 141.059 332.734 142.339 332.012 144.258Z" fill="#616160" transform="matrix(1.00508 0 -0 1 -151.859 121.493)"/><path d="M176.025 59.7626 182.312 59.7626 205.374 0 199.086 0 176.025 59.7626Z" fill="#FFFFFF" transform="matrix(1.00508 0 -0 1 -151.859 121.493)"/><path d="M353.273 48.0926 364.396 48.0926 364.396 59.6333 353.273 59.6333Z" fill="#FFFFFF" transform="matrix(1.00508 0 -0 1 -151.859 121.493)"/><path d="M51.7339 11.8391 43.7052 11.8391C41.652 11.8338 39.8064 13.0905 39.0591 15.0028L28.7521 41.1185 19.0122 15.0824C18.2857 13.1251 16.4141 11.8297 14.3263 11.8391L5.67083 11.8391 22.2655 54.3405C23.0677 56.3867 22.0592 58.6958 20.013 59.498 19.5484 59.6801 19.0536 59.7733 18.5546 59.7725L12.9932 59.7725C11.3448 59.7725 10.0085 61.1088 10.0085 62.7572L10.0085 71.7111 20.8925 71.7111C25.2854 71.7004 29.2276 69.0118 30.8414 64.926Z" fill="#FFFFFF" transform="matrix(1.00508 0 -0 1 -151.859 121.493)"/><path d="M73.6711 11.6998C57.3948 11.9386 50.5898 22.4545 50.5898 35.7163 50.5898 48.9781 57.3948 59.693 73.6711 59.693 89.1415 59.693 96.7523 48.9383 96.7523 35.6864 96.7523 22.4346 90.8527 11.5008 73.6711 11.6998ZM73.6711 49.8138C65.135 49.8138 62.5682 43.5062 62.5682 35.7163 62.5682 27.9264 65.0056 21.6088 73.6711 21.6088 82.625 21.6088 84.7739 27.9164 84.7739 35.7163 84.7739 43.5162 81.4013 49.8138 73.6711 49.8138Z" fill="#FFFFFF" transform="matrix(1.00508 0 -0 1 -151.859 121.493)"/><path d="M133.991 36.3033C133.991 43.5858 130.738 49.5153 123.047 49.4954 114.949 49.4954 112.103 43.5858 112.103 36.3033L112.103 14.5352 112.103 14.5352C112.103 12.9693 110.834 11.6998 109.268 11.6998L99.8663 11.6998 99.8663 35.8158C99.8663 35.9153 99.8663 36.0247 99.8663 36.1341 100.025 49.2865 107.288 59.8919 122.997 59.8919 138.249 59.8919 145.979 49.2865 146.138 36.1341 146.138 36.0247 146.138 35.9153 146.138 35.8158L146.138 11.6998 136.737 11.6998C135.169 11.6998 133.897 12.9677 133.891 14.5352L133.891 14.5352Z" fill="#FFFFFF" transform="matrix(1.00508 0 -0 1 -151.859 121.493)"/><path d="M173.736 11.4312 164.782 11.4312C157.238 11.4312 151.123 17.5469 151.123 25.0909L151.123 59.4044 158.903 59.4044C161.348 59.4044 163.33 57.4223 163.33 54.9772L163.33 27.2598C163.33 25.2636 164.945 23.6439 166.941 23.6384L169.13 23.6384C171.669 23.6384 173.726 21.5805 173.726 19.0421Z" fill="#FFFFFF" transform="matrix(1.00508 0 -0 1 -151.859 121.493)"/><path d="M247.726 0.119386 239.11 0.119386 239.11 13.9284C235.58 12.5341 231.8 11.8838 228.007 12.0182 211.731 12.2072 204.926 22.7629 204.926 36.0247 204.926 49.2865 211.731 60.0412 228.007 60.0412 243.488 60.0412 251.098 49.2865 251.098 36.0247L251.098 3.48209C251.093 1.62331 249.585 0.119378 247.726 0.119386ZM228.017 50.152C219.481 50.152 216.914 43.8345 216.914 36.0446 216.914 28.2547 219.352 21.9372 228.017 21.9372 236.971 21.9372 239.12 28.2547 239.12 36.0446 239.12 43.8345 235.787 50.152 228.017 50.152Z" fill="#FFFFFF" transform="matrix(1.00508 0 -0 1 -151.859 121.493)"/><path d="M300.683 40.5216C302.022 40.5137 303.127 39.4703 303.21 38.1338 303.26 37.3877 303.28 36.6415 303.28 35.8755 303.292 33.8534 303.139 31.8337 302.822 29.8365 301.151 19.45 294.674 11.6998 280.199 11.8689 263.922 12.058 257.117 22.6137 257.117 35.8755 257.117 49.1372 263.922 59.8919 280.199 59.8919 290.794 59.8919 297.699 54.8479 301.002 47.4062 301.243 46.8642 301 46.2289 300.458 45.9871 300.316 45.9237 300.162 45.892 300.007 45.8939L288.615 45.8939C286.684 48.5949 283.516 50.1339 280.199 49.9829 273.453 49.9829 270.439 46.0034 269.474 40.5216ZM280.199 21.768C286.636 21.768 289.551 25.071 290.685 29.8365L269.792 29.8365C270.946 25.071 273.941 21.768 280.199 21.768Z" fill="#FFFFFF" transform="matrix(1.00508 0 -0 1 -151.859 121.493)"/><path d="M337.673 15.1521 325.734 46.66 314.005 15.172C313.287 13.2491 311.461 11.9648 309.408 11.9386L301.947 11.9386 319.049 58.1509C319.423 59.1565 320.384 59.8231 321.457 59.8223L329.853 59.8223C330.931 59.8359 331.904 59.177 332.291 58.1708L349.622 11.9386 342.24 11.9386C340.203 11.9738 338.394 13.247 337.673 15.1521Z" fill="#FFFFFF" transform="matrix(1.00508 0 -0 1 -151.859 121.493)"/><path d="M468.55 59.7626 474.838 59.7626 497.889 0 491.601 0 468.55 59.7626Z" fill="#FFFFFF" transform="matrix(1.00508 0 -0 1 -151.859 121.493)"/><path d="M550.926 48.0926 562.049 48.0926 562.049 59.6333 550.926 59.6333Z" fill="#FFFFFF" transform="matrix(1.00508 0 -0 1 -151.859 121.493)"/><path d="M474.967 11.8391 466.898 11.8391C464.845 11.8338 463 13.0905 462.252 15.0028L451.945 41.1185 442.195 15.0824C441.47 13.1285 439.604 11.8339 437.519 11.8391L428.854 11.8391 445.459 54.3405C446.261 56.3867 445.253 58.6958 443.206 59.498 442.735 59.6827 442.234 59.7758 441.728 59.7725L436.166 59.7725C434.518 59.7725 433.182 61.1088 433.182 62.7572L433.182 71.7111 444.056 71.7111C448.449 71.7004 452.391 69.0118 454.005 64.926Z" fill="#FFFFFF" transform="matrix(1.00508 0 -0 1 -151.859 121.493)"/><path d="M540.221 0.119386 531.606 0.119386 531.606 13.9284C528.076 12.5341 524.296 11.8838 520.503 12.0182 504.226 12.2072 497.421 22.7629 497.421 36.0247 497.421 49.2865 504.226 60.0412 520.503 60.0412 535.973 60.0412 543.584 49.2865 543.584 36.0247L543.584 3.48209C543.584 1.62492 542.078 0.119386 540.221 0.119386ZM520.542 50.152C512.006 50.152 509.44 43.8345 509.44 36.0446 509.44 28.2547 511.877 21.9372 520.542 21.9372 529.496 21.9372 531.645 28.2547 531.645 36.0446 531.645 43.8345 528.283 50.152 520.542 50.152Z" fill="#FFFFFF" transform="matrix(1.00508 0 -0 1 -151.859 121.493)"/></g></g></g></g></svg>